<svg id="visual" viewBox="0 0 900 600" width="900" height="600" xmlns="http://www.w3.org/2000/svg" xmlns:xlink="http://www.w3.org/1999/xlink" version="1.1"><rect x="0" y="0" width="900" height="600" fill="#051a2f"></rect><path d="M0 440L100 436L200 482L300 435L400 400L500 434L600 403L700 457L800 427L900 477L900 601L800 601L700 601L600 601L500 601L400 601L300 601L200 601L100 601L0 601Z" fill="#215279"></path><path d="M0 446L100 507L200 472L300 501L400 435L500 475L600 450L700 504L800 434L900 460L900 601L800 601L700 601L600 601L500 601L400 601L300 601L200 601L100 601L0 601Z" fill="#366389"></path><path d="M0 489L100 490L200 517L300 470L400 510L500 528L600 495L700 484L800 481L900 514L900 601L800 601L700 601L600 601L500 601L400 601L300 601L200 601L100 601L0 601Z" fill="#4a759a"></path><path d="M0 506L100 508L200 548L300 524L400 541L500 518L600 507L700 509L800 544L900 538L900 601L800 601L700 601L600 601L500 601L400 601L300 601L200 601L100 601L0 601Z" fill="#5d87ab"></path><path d="M0 582L100 564L200 582L300 537L400 570L500 551L600 572L700 580L800 560L900 554L900 601L800 601L700 601L600 601L500 601L400 601L300 601L200 601L100 601L0 601Z" fill="#719abc"></path></svg>