<svg id="visual" viewBox="0 0 960 540" width="960" height="540" xmlns="http://www.w3.org/2000/svg" xmlns:xlink="http://www.w3.org/1999/xlink" version="1.1"><rect x="0" y="0" width="960" height="540" fill="#0F172A"></rect><path d="M0 367L107 386L213 354L320 378L427 366L533 373L640 391L747 394L853 354L960 394L960 541L853 541L747 541L640 541L533 541L427 541L320 541L213 541L107 541L0 541Z" fill="#0e7490"></path><path d="M0 385L107 433L213 389L320 432L427 401L533 425L640 417L747 431L853 387L960 406L960 541L853 541L747 541L640 541L533 541L427 541L320 541L213 541L107 541L0 541Z" fill="#0e637c"></path><path d="M0 430L107 419L213 462L320 461L427 434L533 439L640 437L747 464L853 427L960 440L960 541L853 541L747 541L640 541L533 541L427 541L320 541L213 541L107 541L0 541Z" fill="#0d5269"></path><path d="M0 459L107 475L213 453L320 455L427 486L533 469L640 484L747 491L853 481L960 470L960 541L853 541L747 541L640 541L533 541L427 541L320 541L213 541L107 541L0 541Z" fill="#0b4256"></path><path d="M0 496L107 515L213 491L320 494L427 497L533 505L640 486L747 506L853 488L960 500L960 541L853 541L747 541L640 541L533 541L427 541L320 541L213 541L107 541L0 541Z" fill="#083344"></path></svg>