<svg id="visual" viewBox="0 0 1500 500" width="1500" height="500" xmlns="http://www.w3.org/2000/svg" xmlns:xlink="http://www.w3.org/1999/xlink" version="1.1"><path d="M0 349L214 368L429 333L643 291L857 316L1071 313L1286 337L1500 311L1500 501L1286 501L1071 501L857 501L643 501L429 501L214 501L0 501Z" fill="#115e59"></path><path d="M0 380L214 361L429 383L643 372L857 333L1071 398L1286 399L1500 341L1500 501L1286 501L1071 501L857 501L643 501L429 501L214 501L0 501Z" fill="#004c55"></path><path d="M0 381L214 412L429 378L643 419L857 377L1071 400L1286 365L1500 396L1500 501L1286 501L1071 501L857 501L643 501L429 501L214 501L0 501Z" fill="#003a4b"></path><path d="M0 407L214 449L429 403L643 405L857 405L1071 402L1286 408L1500 403L1500 501L1286 501L1071 501L857 501L643 501L429 501L214 501L0 501Z" fill="#0a283c"></path><path d="M0 439L214 472L429 445L643 472L857 464L1071 474L1286 459L1500 444L1500 501L1286 501L1071 501L857 501L643 501L429 501L214 501L0 501Z" fill="#ffffff"></path></svg>