<svg id="visual" viewBox="0 0 900 600" width="900" height="600" xmlns="http://www.w3.org/2000/svg" xmlns:xlink="http://www.w3.org/1999/xlink" version="1.1"><path d="M0 397L129 364L257 371L386 422L514 410L643 383L771 375L900 372L900 601L771 601L643 601L514 601L386 601L257 601L129 601L0 601Z" fill="#075985"></path><path d="M0 396L129 451L257 437L386 464L514 426L643 446L771 437L900 473L900 601L771 601L643 601L514 601L386 601L257 601L129 601L0 601Z" fill="#16476d"></path><path d="M0 504L129 502L257 504L386 450L514 498L643 474L771 487L900 502L900 601L771 601L643 601L514 601L386 601L257 601L129 601L0 601Z" fill="#183656"></path><path d="M0 495L129 525L257 491L386 528L514 538L643 492L771 514L900 480L900 601L771 601L643 601L514 601L386 601L257 601L129 601L0 601Z" fill="#15263f"></path><path d="M0 573L129 567L257 559L386 568L514 557L643 539L771 543L900 527L900 601L771 601L643 601L514 601L386 601L257 601L129 601L0 601Z" fill="#0f172a"></path></svg>