<svg id="visual" viewBox="0 0 1500 500" width="1500" height="500" xmlns="http://www.w3.org/2000/svg" xmlns:xlink="http://www.w3.org/1999/xlink" version="1.1"><path d="M0 352L214 292L429 352L643 363L857 333L1071 345L1286 357L1500 305L1500 501L1286 501L1071 501L857 501L643 501L429 501L214 501L0 501Z" fill="#075985"></path><path d="M0 391L214 335L429 379L643 364L857 372L1071 336L1286 354L1500 356L1500 501L1286 501L1071 501L857 501L643 501L429 501L214 501L0 501Z" fill="#16476d"></path><path d="M0 385L214 385L429 388L643 395L857 375L1071 395L1286 414L1500 415L1500 501L1286 501L1071 501L857 501L643 501L429 501L214 501L0 501Z" fill="#183656"></path><path d="M0 428L214 444L429 409L643 420L857 418L1071 451L1286 445L1500 428L1500 501L1286 501L1071 501L857 501L643 501L429 501L214 501L0 501Z" fill="#15263f"></path><path d="M0 440L214 477L429 456L643 442L857 454L1071 463L1286 447L1500 439L1500 501L1286 501L1071 501L857 501L643 501L429 501L214 501L0 501Z" fill="#0f172a"></path></svg>