<svg id="visual" viewBox="0 0 1500 500" width="1500" height="500" xmlns="http://www.w3.org/2000/svg" xmlns:xlink="http://www.w3.org/1999/xlink" version="1.1"><path d="M0 316L214 330L429 324L643 354L857 325L1071 365L1286 312L1500 353L1500 501L1286 501L1071 501L857 501L643 501L429 501L214 501L0 501Z" fill="#0e7490"></path><path d="M0 363L214 384L429 389L643 372L857 377L1071 398L1286 390L1500 360L1500 501L1286 501L1071 501L857 501L643 501L429 501L214 501L0 501Z" fill="#0e637c"></path><path d="M0 390L214 370L429 407L643 384L857 405L1071 416L1286 393L1500 393L1500 501L1286 501L1071 501L857 501L643 501L429 501L214 501L0 501Z" fill="#0d5269"></path><path d="M0 415L214 426L429 425L643 440L857 425L1071 401L1286 400L1500 435L1500 501L1286 501L1071 501L857 501L643 501L429 501L214 501L0 501Z" fill="#0b4256"></path><path d="M0 443L214 475L429 468L643 438L857 446L1071 460L1286 452L1500 478L1500 501L1286 501L1071 501L857 501L643 501L429 501L214 501L0 501Z" fill="#083344"></path></svg>