<?xml version="1.0" standalone="no"?>
<!DOCTYPE svg PUBLIC "-//W3C//DTD SVG 20010904//EN"
 "http://www.w3.org/TR/2001/REC-SVG-20010904/DTD/svg10.dtd">
<svg version="1.0" xmlns="http://www.w3.org/2000/svg"
 width="473.000000pt" height="481.000000pt" viewBox="0 0 473.000000 481.000000"
 preserveAspectRatio="xMidYMid meet">

<g transform="translate(0.000000,481.000000) scale(0.100000,-0.100000)"
fill="#000000" stroke="none">
<path d="M2250 4343 l0 -448 -1117 -1117 -1118 -1118 225 -225 225 -225 200
200 200 200 170 -170 170 -170 272 272 273 273 368 -368 367 -367 315 315 315
315 135 -135 c74 -74 140 -135 145 -135 5 0 69 60 142 132 l133 133 240 -240
240 -240 217 218 218 217 -263 263 -262 262 37 38 38 37 147 -147 148 -148
148 148 147 147 -712 712 -713 713 -185 -185 -185 -185 -290 290 -290 290 0
207 0 208 303 2 302 3 3 238 2 237 -355 0 -355 0 0 -447z m610 207 l0 -140
-255 0 -255 0 0 140 0 140 255 0 255 0 0 -140z m-560 -1947 l0 -1198 -275 275
-275 275 -273 -273 -272 -272 -170 170 -170 170 -200 -200 -200 -200 -155 155
-155 155 1070 1070 c589 589 1071 1070 1072 1070 2 0 3 -539 3 -1197z m1000
640 l0 -298 -150 150 -150 150 147 147 c81 82 149 148 150 148 2 0 3 -134 3
-297z"/>
<path d="M1940 540 l0 -340 40 0 40 0 0 83 c0 74 3 86 23 105 13 12 26 22 29
22 3 0 41 -47 84 -105 l78 -105 54 0 c42 0 52 3 45 13 -86 111 -193 259 -193
267 0 5 33 45 73 88 111 118 109 112 46 112 l-54 -1 -85 -93 c-47 -52 -88 -95
-92 -95 -5 -1 -8 87 -8 194 l0 195 -40 0 -40 0 0 -340z"/>
<path d="M3938 853 c-22 -5 -35 -50 -21 -72 13 -20 60 -26 79 -10 15 12 18 47
6 65 -9 14 -42 23 -64 17z"/>
<path d="M418 844 c-5 -4 -8 -151 -8 -326 l0 -318 45 0 45 0 0 124 0 124 118
3 c102 4 124 7 167 29 84 44 119 152 80 247 -20 48 -41 71 -90 96 -34 18 -63
21 -195 25 -85 2 -158 1 -162 -4z m306 -89 c82 -39 90 -159 14 -205 -27 -16
-51 -20 -135 -20 l-103 0 0 120 0 120 96 0 c65 0 106 -5 128 -15z"/>
<path d="M2354 836 c-3 -8 -4 -25 -2 -38 3 -22 7 -23 106 -26 l102 -3 0 -284
0 -285 45 0 45 0 0 285 0 284 103 3 102 3 0 35 0 35 -248 3 c-208 2 -248 0
-253 -12z"/>
<path d="M1074 671 c-49 -22 -97 -78 -113 -130 -17 -60 -14 -179 8 -226 23
-52 80 -101 133 -116 81 -21 197 12 233 67 14 21 13 24 -12 44 l-26 21 -28
-27 c-53 -51 -141 -50 -191 3 -26 28 -51 96 -40 107 3 3 77 6 164 6 120 0 158
3 158 13 -1 59 -23 145 -45 179 -48 72 -155 98 -241 59z m145 -76 c16 -14 32
-35 35 -45 4 -11 9 -29 12 -40 5 -19 1 -20 -110 -20 -78 0 -116 4 -116 11 0
27 36 83 64 100 42 26 79 24 115 -6z"/>
<path d="M1530 668 c-43 -22 -90 -76 -90 -104 0 -10 14 -14 43 -14 36 0 46 4
56 24 39 72 159 56 181 -24 6 -22 8 -45 5 -50 -3 -6 -41 -10 -83 -10 -136 0
-219 -64 -209 -162 5 -62 29 -96 84 -120 56 -25 133 -19 175 12 34 25 34 25
41 0 4 -16 14 -20 52 -20 45 0 47 1 40 22 -4 13 -10 102 -14 198 -5 146 -9
181 -24 204 -42 64 -173 86 -257 44z m200 -281 c0 -49 -19 -81 -60 -102 -69
-36 -150 -3 -150 59 0 57 48 84 148 85 l62 1 0 -43z"/>
<path d="M2993 671 c-45 -21 -95 -81 -114 -138 -7 -21 -10 -68 -7 -114 4 -64
10 -87 34 -126 52 -85 146 -118 247 -89 98 28 150 110 150 237 1 99 -32 173
-95 214 -57 38 -154 45 -215 16z m154 -71 c40 -24 63 -68 70 -134 14 -137 -78
-237 -175 -189 -56 28 -76 63 -80 143 -5 85 0 110 35 150 44 53 96 63 150 30z"/>
<path d="M3550 679 c-13 -6 -32 -17 -41 -25 -15 -13 -17 -13 -22 6 -4 16 -13
20 -46 20 l-41 0 0 -330 0 -330 45 0 45 0 0 109 0 108 47 -23 c58 -30 106 -30
163 -1 76 38 110 109 110 228 0 158 -72 250 -193 248 -23 0 -53 -5 -67 -10z
m116 -84 c35 -23 54 -76 54 -155 0 -127 -44 -179 -147 -172 -12 1 -35 14 -52
28 l-31 26 0 117 c0 111 1 119 24 140 43 41 104 47 152 16z"/>
<path d="M4225 671 c-46 -21 -95 -73 -95 -102 0 -28 75 -27 90 1 14 26 62 50
100 50 45 0 90 -47 90 -94 l0 -36 -82 0 c-144 -1 -208 -49 -208 -157 0 -44 5
-58 31 -87 52 -59 135 -72 213 -32 47 24 48 24 53 5 4 -15 14 -19 47 -19 l42
0 -3 158 c-2 86 -6 176 -9 199 -6 51 -44 100 -91 119 -45 19 -130 17 -178 -5z
m185 -289 c0 -50 -16 -75 -67 -101 -75 -38 -161 21 -133 93 13 36 61 55 138
56 l62 0 0 -48z"/>
<path d="M3920 440 l0 -240 40 0 40 0 0 240 0 240 -40 0 -40 0 0 -240z"/>
</g>
</svg>
