<svg width="512" height="512" viewBox="0 0 512 512" fill="none" xmlns="http://www.w3.org/2000/svg">
<path d="M502.748 438.038H108.742L164.161 353.909L305.745 138.955L376.622 246.55L392.538 270.718L502.748 438.038Z" fill="#EFEFEF"/>
<path d="M392.267 270.311L305.745 356.118L257.518 313.331L108.755 438.038H108.742L164.161 353.909L257.197 274.37L305.424 317.168L376.622 246.55L392.267 270.311Z" fill="#A6A6A6"/>
<path d="M207.589 287.978L129.235 406.923L108.742 438.038H9.25299L29.746 406.923L157.845 212.448L188.527 259.035L207.589 287.978Z" fill="#FF318E"/>
<path d="M129.235 406.923L108.742 438.038H9.25299L29.746 406.923H129.235Z" fill="#EA1F8E"/>
<path d="M207.589 287.978L108.742 438.038H73.642L188.527 259.035L207.589 287.978Z" fill="#EA1F8E"/>
<path d="M467.49 438.038H153.872L193.378 407.578L255.204 355.162L302.416 398.267L387.381 317.07L447.32 407.578L467.49 438.038Z" fill="#00A5FF"/>
<path d="M467.49 438.038H153.872L193.378 407.578H447.32L467.49 438.038Z" fill="#0087FF"/>
<path d="M362.183 113.591H305.744V73.956H362.183L348.615 93.773L362.183 113.591Z" fill="#FF318E"/>
<path fill-rule="evenodd" clip-rule="evenodd" d="M429.681 310.291C442.069 329.098 455.599 349.641 471.428 373.672L475.187 379.379C457.724 352.866 443.038 330.57 429.681 310.291Z" fill="black"/>
<path fill-rule="evenodd" clip-rule="evenodd" d="M314.999 136.18V122.847H362.184C365.616 122.847 368.768 120.946 370.369 117.91C371.97 114.874 371.76 111.2 369.819 108.367L359.83 93.777L369.819 79.187C371.758 76.354 371.969 72.681 370.369 69.644C368.769 66.608 365.617 64.707 362.184 64.707H305.746C300.635 64.707 296.493 68.85 296.493 73.96V113.595V136.182L207.589 271.158L165.573 207.368C163.861 204.769 160.958 203.205 157.846 203.205C154.734 203.205 151.831 204.769 150.119 207.368L77.088 318.237L1.52601 432.951C-0.345994 435.793 -0.506994 439.434 1.10701 442.429C2.72101 445.426 5.85001 447.293 9.25301 447.293H108.687C108.705 447.293 108.723 447.296 108.74 447.296H244.896H281.61H502.747C506.15 447.296 509.279 445.428 510.893 442.432C512.508 439.437 512.346 435.796 510.475 432.954L475.187 379.379L471.428 373.672L429.681 310.291L314.999 136.18ZM305.396 343.438L380.374 269.076L305.747 155.775L215.304 293.087C215.294 293.103 215.283 293.119 215.273 293.135L151.235 390.358L251.578 306.244C255.092 303.298 260.233 303.369 263.663 306.413L305.396 343.438ZM196.506 287.977L157.842 229.278L92.542 328.417L26.427 428.793H103.757L196.506 287.977ZM181.016 428.79H244.896H281.61H450.268L385.773 331.401L308.807 404.954C305.288 408.315 299.766 408.377 296.175 405.097L254.977 367.483L199.359 414.634C199.34 414.65 199.322 414.665 199.303 414.681C199.283 414.698 199.264 414.714 199.244 414.73C199.214 414.755 199.183 414.779 199.153 414.804C199.111 414.837 199.069 414.871 199.026 414.904L181.016 428.79ZM344.634 104.337L340.98 99C338.822 95.849 338.822 91.696 340.98 88.545L344.634 83.208H314.997V104.337H344.634ZM395.095 311.96L472.465 428.791L472.466 428.79H485.574L390.756 284.835L312.262 362.685C308.795 366.122 303.257 366.276 299.605 363.037L257.348 325.547L134.187 428.789H150.71L187.558 400.379L249.222 348.102C252.772 345.093 258.006 345.188 261.445 348.327L302.271 385.604L380.988 310.379C382.968 308.486 385.682 307.567 388.411 307.873C391.134 308.179 393.582 309.675 395.095 311.96Z" fill="black"/>
<path d="M472.465 428.791L395.095 311.96C393.582 309.675 391.134 308.179 388.411 307.873C385.682 307.567 382.968 308.486 380.988 310.379L302.271 385.604L261.445 348.327C258.006 345.188 252.772 345.093 249.222 348.102L187.558 400.379L150.71 428.789H134.187L257.348 325.547L299.605 363.037C303.257 366.276 308.795 366.122 312.262 362.685L390.756 284.835L485.574 428.79H472.466L472.465 428.791Z" fill="#A6A6A6"/>
<path d="M472.048 429.067L472.381 429.569L472.669 429.29H485.574H486.502L485.992 428.515L391.174 284.56L390.838 284.05L390.404 284.48L311.91 362.33C308.63 365.581 303.391 365.727 299.937 362.663L257.68 325.173L257.357 324.887L257.027 325.164L133.866 428.406L132.812 429.289H134.187H150.71H150.88L151.015 429.185L187.863 400.775L187.872 400.768L187.881 400.76L249.545 348.483C252.903 345.637 257.855 345.727 261.108 348.696L301.934 385.973L302.279 386.288L302.616 385.965L381.333 310.74L380.988 310.379L381.334 310.74C383.207 308.95 385.774 308.08 388.355 308.37C390.931 308.659 393.247 310.075 394.678 312.236L395.095 311.96L394.678 312.236L472.048 429.067ZM484.646 428.29H472.733L395.512 311.684C393.917 309.275 391.337 307.699 388.467 307.376L388.411 307.873L388.467 307.376C385.59 307.054 382.729 308.022 380.642 310.018L302.263 384.92L261.782 347.958L261.445 348.327L261.782 347.958C258.157 344.649 252.641 344.549 248.899 347.721L187.244 399.99L150.54 428.289H135.562L257.339 326.207L299.273 363.411L299.605 363.037L299.273 363.411C303.123 366.825 308.96 366.663 312.614 363.04L312.262 362.685L312.614 363.04L390.674 285.62L484.646 428.29ZM471.011 373.947L474.77 379.654L510.057 433.229C511.827 435.918 511.98 439.362 510.453 442.195L510.893 442.432L510.453 442.195C508.926 445.029 505.966 446.796 502.747 446.796H281.61H244.896H108.753C108.748 446.796 108.74 446.795 108.732 446.794C108.721 446.794 108.705 446.793 108.687 446.793H9.25301C6.03378 446.793 3.07394 445.027 1.54723 442.192L1.54716 442.192C0.0204464 439.359 0.172694 435.914 1.94356 433.226L77.5056 318.512L150.537 207.643C152.156 205.184 154.902 203.705 157.846 203.705C160.79 203.705 163.536 205.184 165.155 207.643L207.171 271.433L207.589 272.067L208.007 271.433L296.911 136.457L296.993 136.332V136.182V113.595V73.96C296.993 69.1261 300.911 65.207 305.746 65.207H362.184C365.432 65.207 368.413 67.0054 369.927 69.8771C371.44 72.7501 371.241 76.2247 369.406 78.9045L359.417 93.4945L359.224 93.777L359.417 94.0595L369.406 108.649L369.819 108.367L369.407 108.65C371.243 111.329 371.441 114.805 369.927 117.677C368.412 120.549 365.431 122.347 362.184 122.347H314.999H314.499V122.847V136.18V136.33L314.581 136.455L429.263 310.566L471.011 373.947ZM199.035 414.253C199.029 414.258 199.023 414.263 199.017 414.268C199.006 414.278 198.994 414.288 198.983 414.297C198.975 414.304 198.967 414.311 198.959 414.317C198.948 414.326 198.937 414.335 198.927 414.344L199.244 414.73L198.927 414.344C198.898 414.367 198.87 414.39 198.841 414.413C198.819 414.431 198.796 414.449 198.774 414.466C198.756 414.481 198.737 414.495 198.719 414.509L180.711 428.394L179.549 429.29H181.016H244.896H281.61H450.268H451.199L450.685 428.514L386.19 331.125L385.86 330.626L385.428 331.04L308.462 404.592C305.133 407.772 299.909 407.83 296.512 404.728L296.175 405.097L296.512 404.728L255.314 367.114L254.989 366.817L254.654 367.102L199.036 414.253L199.035 414.253ZM380.726 269.431L381.017 269.143L380.792 268.801L306.165 155.5L305.747 154.866L305.329 155.5L214.886 292.812L214.886 292.812L214.88 292.822L214.87 292.837C214.866 292.843 214.86 292.853 214.853 292.864C214.851 292.866 214.85 292.868 214.849 292.87L150.817 390.083L151.556 390.741L251.899 306.627C255.223 303.84 260.087 303.908 263.331 306.787L263.663 306.413L263.331 306.787L305.064 343.812L305.415 344.123L305.748 343.793L380.726 269.431ZM158.26 229.003L157.842 228.369L157.424 229.003L92.1245 328.142L26.0094 428.518L25.499 429.293H26.427H103.757H104.026L104.175 429.068L196.924 288.252L197.105 287.977L196.924 287.702L158.26 229.003ZM344.634 104.837H345.582L345.047 104.055L341.393 98.7175C339.351 95.7368 339.351 91.8082 341.393 88.8275L345.047 83.4905L345.582 82.708H344.634H314.997H314.497V83.208V104.337V104.837H314.997H344.634Z" stroke="black"/>
</svg>
