<?xml version="1.0" encoding="iso-8859-1"?>
<!-- Generator: Adobe Illustrator 19.0.0, SVG Export Plug-In . SVG Version: 6.00 Build 0)  -->
<svg xmlns="http://www.w3.org/2000/svg" xmlns:xlink="http://www.w3.org/1999/xlink" version="1.1" id="Layer_1" x="0px" y="0px" viewBox="0 0 512.001 512.001" style="enable-background:new 0 0 512.001 512.001;" xml:space="preserve">
<polygon style="fill:#EFEFEF;" points="502.748,438.038 108.742,438.038 164.161,353.909 305.745,138.955 376.622,246.55   392.538,270.718 "/>
<polygon style="fill:#E0E0E3;" points="392.267,270.311 305.745,356.118 257.518,313.331 108.755,438.038 108.742,438.038   164.161,353.909 257.197,274.37 305.424,317.168 376.622,246.55 "/>
<polygon style="fill:#FF318E;" points="207.589,287.978 129.235,406.923 108.742,438.038 9.253,438.038 29.746,406.923   157.845,212.448 188.527,259.035 "/>
<g>
	<polygon style="fill:#EA1F8E;" points="129.235,406.923 108.742,438.038 9.253,438.038 29.746,406.923  "/>
	<polygon style="fill:#EA1F8E;" points="207.589,287.978 108.742,438.038 73.642,438.038 188.527,259.035  "/>
</g>
<polygon style="fill:#00A5FF;" points="467.49,438.038 153.872,438.038 193.378,407.578 255.204,355.162 302.416,398.267   387.381,317.07 447.32,407.578 "/>
<polygon style="fill:#0087FF;" points="467.49,438.038 153.872,438.038 193.378,407.578 447.32,407.578 "/>
<polygon style="fill:#FF318E;" points="362.183,113.591 305.744,113.591 305.744,73.956 362.183,73.956 348.615,93.773 "/>
<path d="M510.475,432.954L404.159,271.543l41.07-40.732v4.465c0,5.111,4.142,9.253,9.253,9.253s9.253-4.143,9.253-9.253v-26.588
  c0.05-5.07-4.153-9.342-9.253-9.342h-27.56c-5.111,0-9.253,4.143-9.253,9.253c0,5.111,4.142,9.253,9.253,9.253h5.097l-38.242,37.929  
  l-27.546-41.82c-2.812-4.269-8.548-5.448-12.818-2.637c-4.267,2.811-5.448,8.549-2.637,12.817l29.598,44.935l-74.978,74.362  
  l-41.733-37.025c-3.43-3.044-8.571-3.115-12.085-0.169l-100.343,84.114l64.038-97.223c0.01-0.016,0.021-0.032,0.031-0.048  
  l90.443-137.312l27.467,41.703c2.811,4.268,8.549,5.448,12.818,2.637c4.267-2.811,5.448-8.549,2.637-12.817l-33.67-51.118v-13.333  
  h47.185c3.432,0,6.584-1.901,8.185-4.937s1.391-6.71-0.55-9.543l-9.989-14.59l9.989-14.59c1.939-2.833,2.15-6.506,0.55-9.543  
  c-1.6-3.036-4.752-4.937-8.185-4.937h-56.438c-5.111,0-9.253,4.143-9.253,9.253v39.635v22.587l-88.904,134.976l-42.016-63.79  
  c-1.712-2.599-4.615-4.163-7.727-4.163c-3.112,0-6.015,1.564-7.727,4.163l-55.21,83.813c-2.812,4.267-1.631,10.006,2.637,12.817  
  c1.568,1.033,3.334,1.528,5.081,1.528c3.007-0.001,5.958-1.465,7.735-4.165l47.48-72.083l38.664,58.699l-92.749,140.816h-77.33  
  l66.115-100.376c2.812-4.267,1.63-10.006-2.637-12.817c-4.267-2.812-10.006-1.629-12.817,2.637L1.526,432.951  
  c-1.872,2.842-2.033,6.483-0.419,9.478c1.614,2.997,4.743,4.864,8.146,4.864h99.434c0.018,0,0.036,0.003,0.053,0.003h136.156  
  c5.111,0,9.253-4.143,9.253-9.253c0-5.11-4.143-9.253-9.253-9.253h-63.88l18.01-13.886c0.113-0.088,0.225-0.178,0.333-0.27  
  l55.618-47.151l41.198,37.614c3.591,3.28,9.113,3.218,12.632-0.143l76.966-73.553l64.495,97.389H281.61  
  c-5.111,0-9.253,4.143-9.253,9.253c0,5.11,4.142,9.253,9.253,9.253h221.137c3.403,0,6.532-1.868,8.146-4.864  
  C512.508,439.437,512.346,435.796,510.475,432.954z M340.98,99l3.654,5.337h-29.637V83.208h29.637l-3.654,5.337  
  C338.822,91.696,338.822,95.849,340.98,99z M472.465,428.791L395.095,311.96c-1.513-2.285-3.961-3.781-6.684-4.087  
  c-2.729-0.306-5.443,0.613-7.423,2.506l-78.717,75.225l-40.826-37.277c-3.439-3.139-8.673-3.234-12.223-0.225l-61.664,52.277  
  l-36.848,28.41h-16.523l123.161-103.242l42.257,37.49c3.652,3.239,9.19,3.085,12.657-0.352l78.494-77.85l94.818,143.955h-13.108  
  V428.791z"/>
</svg>
